<?xml version="1.0" encoding="UTF-8" standalone="no"?>
<!DOCTYPE svg PUBLIC "-//W3C//DTD SVG 1.1//EN" "http://www.w3.org/Graphics/SVG/1.1/DTD/svg11.dtd">
<svg width="100%" height="100%" viewBox="0 0 1440 900" version="1.1" xmlns="http://www.w3.org/2000/svg" xmlns:xlink="http://www.w3.org/1999/xlink" xml:space="preserve" xmlns:serif="http://www.serif.com/" style="fill-rule:evenodd;clip-rule:evenodd;stroke-linecap:round;stroke-linejoin:round;stroke-miterlimit:1.5;">
    <g transform="matrix(1,0,0,0.997551,0,-4.31839e-05)">
        <rect x="-0.708" y="-0.018" width="1455.41" height="667.919" style="fill:white;"/>
    </g>
    <g transform="matrix(1.53527,0,0,1,-960.628,-0.973854)">
        <rect x="1398.9" y="496.345" width="15.117" height="171.059" style="fill:rgb(99,192,194);"/>
        <g transform="matrix(0.287275,0,0,1,1007.81,0)">
            <rect x="1398.9" y="496.345" width="15.117" height="171.059" style="fill:rgb(84,167,168);"/>
        </g>
    </g>
    <g>
        <g transform="matrix(1,0,0,1,-203.809,-0.575446)">
            <g transform="matrix(1,0,0,1,-78.5776,1.3231)">
                <path d="M1492.67,470.016L998.276,470.016L822.123,665.634L1404.96,665.634L1492.67,495.42L1492.67,470.016Z" style="fill:rgb(84,167,168);"/>
            </g>
            <g transform="matrix(1,0,0,1,-78.5756,1.32286)">
                <path d="M1492.67,470.016L998.276,470.016L822.123,665.634L1387.56,665.634L1492.67,470.016Z" style="fill:rgb(99,192,194);"/>
            </g>
            <g transform="matrix(1.25309,0,0,1.12581,-177.339,-90.2463)">
                <path d="M1110.18,553.761C1115.03,531.34 1079.83,535.378 1066.63,535.378L968.816,539.345C955.607,539.345 961.684,535.937 961.684,549.433L968.816,582.414C968.816,595.91 955.607,620.517 968.816,620.517L1048.73,621.424C1061.94,621.424 1089.01,626.091 1104.13,574.424L1110.18,553.761Z" style="fill:rgb(58,58,58);"/>
            </g>
            <g transform="matrix(0.99361,-0.11287,0.11287,0.99361,-55.1911,133.509)">
                <g transform="matrix(0.072412,0.0145876,-0.101434,0.503514,1174.38,259.956)">
                    <path d="M1202.71,520.421C1202.71,519.223 1195.95,518.251 1187.62,518.251L1157.45,518.251C1149.13,518.251 1142.37,519.223 1142.37,520.421L1142.37,524.863C1142.37,526.06 1149.13,527.032 1157.45,527.032L1187.62,527.032C1195.95,527.032 1202.71,526.06 1202.71,524.863L1202.71,520.421Z" style="fill:rgb(65,65,65);"/>
                </g>
                <g transform="matrix(0.072412,0.0145876,-0.101434,0.503514,1162.87,265.615)">
                    <path d="M1202.71,520.421C1202.71,519.223 1195.95,518.251 1187.62,518.251L1157.45,518.251C1149.13,518.251 1142.37,519.223 1142.37,520.421L1142.37,524.863C1142.37,526.06 1149.13,527.032 1157.45,527.032L1187.62,527.032C1195.95,527.032 1202.71,526.06 1202.71,524.863L1202.71,520.421Z" style="fill:rgb(65,65,65);"/>
                </g>
                <g transform="matrix(0.072412,0.0145876,-0.101434,0.503514,1151.3,305.408)">
                    <path d="M1202.71,520.421C1202.71,519.223 1195.95,518.251 1187.62,518.251L1157.45,518.251C1149.13,518.251 1142.37,519.223 1142.37,520.421L1142.37,524.863C1142.37,526.06 1149.13,527.032 1157.45,527.032L1187.62,527.032C1195.95,527.032 1202.71,526.06 1202.71,524.863L1202.71,520.421Z" style="fill:rgb(65,65,65);"/>
                </g>
                <g transform="matrix(0.072412,0.0145876,-0.101434,0.503514,1145.33,304.237)">
                    <path d="M1202.71,520.421C1202.71,519.223 1195.95,518.251 1187.62,518.251L1157.45,518.251C1149.13,518.251 1142.37,519.223 1142.37,520.421L1142.37,524.863C1142.37,526.06 1149.13,527.032 1157.45,527.032L1187.62,527.032C1195.95,527.032 1202.71,526.06 1202.71,524.863L1202.71,520.421Z" style="fill:rgb(65,65,65);"/>
                </g>
                <g transform="matrix(0.072412,0.0145876,-0.101434,0.503514,1145.33,304.237)">
                    <path d="M1202.71,520.421C1202.71,519.223 1195.95,518.251 1187.62,518.251L1157.45,518.251C1149.13,518.251 1142.37,519.223 1142.37,520.421L1142.37,524.863C1142.37,526.06 1149.13,527.032 1157.45,527.032L1187.62,527.032C1195.95,527.032 1202.71,526.06 1202.71,524.863L1202.71,520.421Z" style="fill:rgb(65,65,65);"/>
                </g>
                <g transform="matrix(0.072412,0.0145876,-0.101434,0.503514,1138.81,316.343)">
                    <path d="M1202.71,520.421C1202.71,519.223 1195.95,518.251 1187.62,518.251L1157.45,518.251C1149.13,518.251 1142.37,519.223 1142.37,520.421L1142.37,524.863C1142.37,526.06 1149.13,527.032 1157.45,527.032L1187.62,527.032C1195.95,527.032 1202.71,526.06 1202.71,524.863L1202.71,520.421Z" style="fill:rgb(65,65,65);"/>
                </g>
                <g transform="matrix(0.072412,0.0145876,-0.101434,0.503514,1139.51,303.102)">
                    <path d="M1202.71,520.421C1202.71,519.223 1195.95,518.251 1187.62,518.251L1157.45,518.251C1149.13,518.251 1142.37,519.223 1142.37,520.421L1142.37,524.863C1142.37,526.06 1149.13,527.032 1157.45,527.032L1187.62,527.032C1195.95,527.032 1202.71,526.06 1202.71,524.863L1202.71,520.421Z" style="fill:rgb(65,65,65);"/>
                </g>
                <g transform="matrix(0.072412,0.0145876,-0.101434,0.503514,1157.11,264.323)">
                    <path d="M1202.71,520.421C1202.71,519.223 1195.95,518.251 1187.62,518.251L1157.45,518.251C1149.13,518.251 1142.37,519.223 1142.37,520.421L1142.37,524.863C1142.37,526.06 1149.13,527.032 1157.45,527.032L1187.62,527.032C1195.95,527.032 1202.71,526.06 1202.71,524.863L1202.71,520.421Z" style="fill:rgb(65,65,65);"/>
                </g>
                <g transform="matrix(0.072412,0.0145876,-0.101434,0.503514,1144.22,295.991)">
                    <path d="M1202.71,520.421C1202.71,519.223 1195.95,518.251 1187.62,518.251L1157.45,518.251C1149.13,518.251 1142.37,519.223 1142.37,520.421L1142.37,524.863C1142.37,526.06 1149.13,527.032 1157.45,527.032L1187.62,527.032C1195.95,527.032 1202.71,526.06 1202.71,524.863L1202.71,520.421Z" style="fill:rgb(65,65,65);"/>
                </g>
                <g transform="matrix(0.072412,0.0145876,-0.101434,0.503514,1151.42,263.087)">
                    <path d="M1202.71,520.421C1202.71,519.223 1195.95,518.251 1187.62,518.251L1157.45,518.251C1149.13,518.251 1142.37,519.223 1142.37,520.421L1142.37,524.863C1142.37,526.06 1149.13,527.032 1157.45,527.032L1187.62,527.032C1195.95,527.032 1202.71,526.06 1202.71,524.863L1202.71,520.421Z" style="fill:rgb(65,65,65);"/>
                </g>
                <g transform="matrix(0.072412,0.0145876,-0.101434,0.503514,1145.8,261.937)">
                    <path d="M1202.71,520.421C1202.71,519.223 1195.95,518.251 1187.62,518.251L1157.45,518.251C1149.13,518.251 1142.37,519.223 1142.37,520.421L1142.37,524.863C1142.37,526.06 1149.13,527.032 1157.45,527.032L1187.62,527.032C1195.95,527.032 1202.71,526.06 1202.71,524.863L1202.71,520.421Z" style="fill:rgb(65,65,65);"/>
                </g>
                <g transform="matrix(0.072412,0.0145876,-0.101434,0.503514,1140.63,260.703)">
                    <path d="M1202.71,520.421C1202.71,519.223 1195.95,518.251 1187.62,518.251L1157.45,518.251C1149.13,518.251 1142.37,519.223 1142.37,520.421L1142.37,524.863C1142.37,526.06 1149.13,527.032 1157.45,527.032L1187.62,527.032C1195.95,527.032 1202.71,526.06 1202.71,524.863L1202.71,520.421Z" style="fill:rgb(65,65,65);"/>
                </g>
                <g transform="matrix(0.113275,0.0228196,-0.101434,0.503514,1121.77,257.545)">
                    <path d="M1202.71,520.446C1202.71,519.235 1198.34,518.251 1192.95,518.251L1152.12,518.251C1146.74,518.251 1142.37,519.235 1142.37,520.446L1142.37,524.837C1142.37,526.049 1146.74,527.032 1152.12,527.032L1192.95,527.032C1198.34,527.032 1202.71,526.049 1202.71,524.837L1202.71,520.446Z" style="fill:rgb(65,65,65);"/>
                </g>
                <g transform="matrix(0.494112,0.0995404,-0.101434,0.503514,661.057,156.509)">
                    <path d="M1202.71,520.446C1202.71,519.235 1201.7,518.251 1200.47,518.251L1144.6,518.251C1143.37,518.251 1142.37,519.235 1142.37,520.446L1142.37,524.837C1142.37,526.049 1143.37,527.032 1144.6,527.032L1200.47,527.032C1201.7,527.032 1202.71,526.049 1202.71,524.837L1202.71,520.446Z" style="fill:rgb(65,65,65);"/>
                </g>
                <g transform="matrix(0.494112,0.0995404,-0.101434,0.503514,661.305,173.115)">
                    <path d="M1202.71,520.446C1202.71,519.235 1201.7,518.251 1200.47,518.251L1144.6,518.251C1143.37,518.251 1142.37,519.235 1142.37,520.446L1142.37,524.837C1142.37,526.049 1143.37,527.032 1144.6,527.032L1200.47,527.032C1201.7,527.032 1202.71,526.049 1202.71,524.837L1202.71,520.446Z" style="fill:rgb(65,65,65);"/>
                </g>
                <g transform="matrix(0.494112,0.0995404,-0.101434,0.503514,654.013,188.812)">
                    <path d="M1202.71,520.446C1202.71,519.235 1201.7,518.251 1200.47,518.251L1144.6,518.251C1143.37,518.251 1142.37,519.235 1142.37,520.446L1142.37,524.837C1142.37,526.049 1143.37,527.032 1144.6,527.032L1200.47,527.032C1201.7,527.032 1202.71,526.049 1202.71,524.837L1202.71,520.446Z" style="fill:rgb(65,65,65);"/>
                </g>
                <g transform="matrix(0.180434,0.036349,-0.101434,0.503514,1036.11,256.648)">
                    <path d="M1202.71,520.446C1202.71,519.235 1199.96,518.251 1196.58,518.251L1148.49,518.251C1145.11,518.251 1142.37,519.235 1142.37,520.446L1142.37,524.837C1142.37,526.049 1145.11,527.032 1148.49,527.032L1196.58,527.032C1199.96,527.032 1202.71,526.049 1202.71,524.837L1202.71,520.446Z" style="fill:rgb(65,65,65);"/>
                </g>
                <g transform="matrix(0.180434,0.036349,-0.101434,0.503514,1027,272.385)">
                    <path d="M1202.71,520.446C1202.71,519.235 1199.96,518.251 1196.58,518.251L1148.49,518.251C1145.11,518.251 1142.37,519.235 1142.37,520.446L1142.37,524.837C1142.37,526.049 1145.11,527.032 1148.49,527.032L1196.58,527.032C1199.96,527.032 1202.71,526.049 1202.71,524.837L1202.71,520.446Z" style="fill:rgb(65,65,65);"/>
                </g>
                <g transform="matrix(0.0460006,0.00926697,-0.101434,0.503514,1185.33,286.797)">
                    <path d="M1202.71,519.629C1202.71,518.869 1195.95,518.251 1187.62,518.251L1157.45,518.251C1149.13,518.251 1142.37,518.869 1142.37,519.629L1142.37,525.654C1142.37,526.415 1149.13,527.032 1157.45,527.032L1187.62,527.032C1195.95,527.032 1202.71,526.415 1202.71,525.654L1202.71,519.629Z" style="fill:rgb(65,65,65);"/>
                </g>
                <g transform="matrix(0.189422,0.0381597,-0.101434,0.503514,1008.76,251.129)">
                    <path d="M1202.71,520.446C1202.71,519.235 1200.09,518.251 1196.87,518.251L1148.2,518.251C1144.98,518.251 1142.37,519.235 1142.37,520.446L1142.37,524.837C1142.37,526.049 1144.98,527.032 1148.2,527.032L1196.87,527.032C1200.09,527.032 1202.71,526.049 1202.71,524.837L1202.71,520.446Z" style="fill:rgb(65,65,65);"/>
                </g>
            </g>
            <g transform="matrix(1.25309,0,0,1.22642,-196.69,-151.567)">
                <path d="M1094.37,547.158C1094.37,533.662 1083.65,522.705 1070.44,522.705L968.816,522.705C955.607,522.705 944.884,533.662 944.884,547.158L944.884,596.064C944.884,609.56 955.607,620.517 968.816,620.517L1070.44,620.517C1083.65,620.517 1094.37,609.56 1094.37,596.064L1094.37,547.158Z" style="fill:rgb(65,65,65);"/>
            </g>
        </g>
        <g transform="matrix(1,0,0,1,-203.742,-0.973854)">
            <path d="M1320.48,444.784C1348.44,443.065 1382.19,452.248 1404.19,452.248C1420.48,452.248 1437.24,450.523 1452.49,444.784C1472.92,437.089 1522.55,422.366 1526.82,406.079C1531.09,389.792 1465.57,369.272 1478.12,347.062C1491.37,323.593 1532.78,310.658 1550.09,297.286C1647.86,221.743 1521.78,111.312 1359.96,142.267C1290.31,155.592 1233.49,108.234 1266.67,62.394C1279.9,44.117 1285.66,29.736 1283.54,7.5C1280.23,-27.147 1157.75,-50.864 1116.06,-9.069C1103.75,3.265 1006.29,-29.446 910.677,-30.343C777.26,-31.594 297.502,-54.547 296.643,-46.066C295.169,-31.506 348.082,51.943 387.715,127.457C412.398,174.486 521.309,175.207 562.575,221.644C603.841,268.081 523.444,363.99 623.705,431.404C681.558,470.304 832.886,405.004 890.004,382.816C977.087,348.986 1053.05,366.869 1032.75,406.079C1008.83,452.271 987.656,514.567 987.656,514.567C993.012,496.624 1003.96,491.418 1016.52,489.891C1111.62,489.891 1109.95,490.371 1144.49,490.326C1167.39,490.296 1173.52,512.842 1173.52,512.842C1173.52,512.842 1202.76,477.241 1231.18,462.884C1266.67,444.954 1291.64,446.556 1320.48,444.784Z" style="fill:rgb(159,69,68);fill-opacity:0.666667;"/>
        </g>
    </g>
    <g>
        <g transform="matrix(0.363083,0.0236367,-0.013623,0.209264,808.522,325.186)">
            <path d="M1210.82,392.546C1229.61,391.881 1228.67,365.983 1210.82,366.613L1175.81,366.613C1161.97,366.206 1161.97,392.139 1175.81,392.546L1210.82,392.546Z" style="fill:rgb(137,78,77);stroke:black;stroke-opacity:0;stroke-width:2.08px;"/>
        </g>
        <g transform="matrix(0.150549,-0.219747,0.0779386,0.0533959,1039.91,683.598)">
            <path d="M1210.82,392.546C1229.61,391.881 1228.67,365.983 1210.82,366.613L1175.81,366.613C1161.97,366.206 1161.97,392.139 1175.81,392.546L1210.82,392.546Z" style="fill:rgb(137,78,77);stroke:black;stroke-opacity:0;stroke-width:3.09px;"/>
        </g>
        <g transform="matrix(0.0199945,-0.18242,0.0974844,0.010685,1212.58,622.052)">
            <path d="M1210.82,392.546C1229.61,391.881 1228.67,365.983 1210.82,366.613L1175.81,366.613C1161.97,366.206 1161.97,392.139 1175.81,392.546L1210.82,392.546Z" style="fill:rgb(137,78,77);stroke:black;stroke-opacity:0;stroke-width:4.19px;"/>
        </g>
        <g transform="matrix(0.230255,-0.0887387,0.0589856,0.153053,985.694,463.241)">
            <path d="M1210.82,392.546C1229.61,391.881 1228.67,365.983 1210.82,366.613L1175.81,366.613C1161.97,366.206 1161.97,392.139 1175.81,392.546L1210.82,392.546Z" style="fill:rgb(137,78,77);stroke:black;stroke-opacity:0;stroke-width:2.94px;"/>
        </g>
        <g transform="matrix(2.0531,0,0,2.0531,-1084.17,-405.304)">
            <g transform="matrix(0.316878,0,0,0.414774,778.204,232.459)">
                <ellipse cx="1128.93" cy="389.707" rx="33.542" ry="27.591" style="fill:rgb(102,39,38);fill-opacity:0.262745;"/>
            </g>
            <g transform="matrix(-0.12444,0.12762,-0.12762,-0.12444,1281.72,397.666)">
                <g transform="matrix(1,2.77556e-17,5.55112e-17,1,2.61019,-0.21413)">
                    <g transform="matrix(1,0,0,1,-2.06747,-0.590705)">
                        <g transform="matrix(0.799178,0.151757,-0.186557,0.982444,287.159,-79.3974)">
                            <rect x="458.667" y="370.423" width="38.304" height="99.682" style="fill:rgb(65,65,65);stroke:black;stroke-width:1.85px;"/>
                        </g>
                        <g transform="matrix(0.98287,0.184298,-0.205338,1.09508,84.7613,-144.123)">
                            <rect x="603.819" y="358.01" width="9.23" height="88.237" style="fill:rgb(50,22,10);stroke:black;stroke-opacity:0;stroke-width:1.59px;"/>
                        </g>
                        <g transform="matrix(1.14323,0.214367,-0.205338,1.09508,-19.6809,-163.735)">
                            <rect x="603.819" y="358.01" width="9.23" height="88.237" style="fill:rgb(100,51,32);stroke:black;stroke-opacity:0;stroke-width:1.48px;"/>
                        </g>
                    </g>
                    <path d="M610.518,364.905L581.546,363.842L610.518,372.314L580.073,366.9L606.591,389.16L577.696,382.805L605.381,398.031L574.388,392.256L602.269,413.522L571.316,413.522L600.938,420.847L571.316,420.847L597.78,438.332L566.118,438.332L595.18,452.509" style="fill:none;stroke:black;stroke-width:1.69px;"/>
                </g>
                <g transform="matrix(0.981057,0.193718,-0.193718,0.981057,67.5957,-119.145)">
                    <path d="M641.189,325.656C611.79,304.186 617.752,304.447 589.035,325.864C583.773,329.789 592.85,345.184 592.85,345.184L594.159,365.234L635.832,365.265L637.19,345.585C637.19,345.585 647.609,330.345 641.189,325.656Z" style="fill:rgb(99,192,194);stroke:black;stroke-width:1.69px;"/>
                </g>
                <g transform="matrix(0.981057,0.193718,-0.193718,0.981057,67.5957,-119.145)">
                    <clipPath id="_clip1">
                        <rect x="587.394" y="309.677" width="19.092" height="55.588"/>
                    </clipPath>
                    <g clip-path="url(#_clip1)">
                        <path d="M641.189,325.656C611.79,304.186 617.752,304.447 589.035,325.864C583.773,329.789 592.85,345.184 592.85,345.184L594.159,365.234L635.832,365.265L637.19,345.585C637.19,345.585 647.609,330.345 641.189,325.656Z" style="fill:rgb(84,167,168);stroke:black;stroke-width:1.69px;"/>
                    </g>
                </g>
                <g transform="matrix(1,0,0,1,115.834,-15.6907)">
                    <g transform="matrix(-0.983164,-0.182723,0.182723,-0.983164,1006.2,901.578)">
                        <g transform="matrix(1,0,0,0.445372,0,71.5711)">
                            <path d="M608.971,129.043L633.631,207.064L633.631,546.224L586.341,546.224L586.341,207.064L608.971,129.043Z" style="fill:rgb(99,192,194);stroke:black;stroke-width:2.18px;"/>
                        </g>
                        <g transform="matrix(2.23304,1.5749,-1.5749,2.23304,-1542.74,-2689.06)">
                            <path d="M1254.65,397.606L1249.83,399.866L1275.93,435.336L1279.53,432.734L1254.65,397.606Z" style="fill:rgb(84,167,168);stroke:black;stroke-opacity:0;stroke-width:0.62px;"/>
                        </g>
                        <path d="M628.98,166.383L610.879,203.051L591.091,166.383L610.879,203.051L610.879,313.393" style="fill:none;stroke:black;stroke-width:1.69px;"/>
                        <g transform="matrix(1.02703,0,0,1,-15.7425,0)">
                            <rect x="582.475" y="293.148" width="53.787" height="27.136" style="fill:rgb(65,65,65);stroke:black;stroke-width:1.66px;"/>
                        </g>
                    </g>
                    <g transform="matrix(0.390884,0.0702402,0.176863,-0.984235,236.152,959.328)">
                        <path d="M484.564,505.968C481.125,505.581 480.039,513.237 470.77,512.82C447.238,511.76 346.679,500.644 346.679,500.644C346.679,500.644 252.904,511.678 230.483,512.738C226.203,512.94 218.351,507.095 214.728,506.749C211.127,506.404 202.414,523.202 212.152,523.961C216.479,524.298 229.499,524.384 229.499,524.384L472.735,523.961C472.735,523.961 483.954,524.011 487.87,523.961C499.822,523.808 491.998,506.804 484.564,505.968Z" style="fill:rgb(99,192,194);stroke:black;stroke-width:2.22px;"/>
                    </g>
                    <g transform="matrix(0.390884,0.0702402,0.176863,-0.984235,236.152,959.328)">
                        <clipPath id="_clip2">
                            <rect x="207.691" y="500.644" width="118.02" height="23.74"/>
                        </clipPath>
                        <g clip-path="url(#_clip2)">
                            <path d="M484.564,505.968C481.125,505.581 480.039,513.237 470.77,512.82C447.238,511.76 346.679,500.644 346.679,500.644C346.679,500.644 252.904,511.678 230.483,512.738C226.203,512.94 218.351,507.095 214.728,506.749C211.127,506.404 202.414,523.202 212.152,523.961C216.479,524.298 229.499,524.384 229.499,524.384L472.735,523.961C472.735,523.961 483.954,524.011 487.87,523.961C499.822,523.808 491.998,506.804 484.564,505.968Z" style="fill:rgb(84,167,168);stroke:black;stroke-width:2.22px;"/>
                        </g>
                    </g>
                </g>
            </g>
            <g transform="matrix(0.197816,0,0,0.191347,909.828,316.241)">
                <path d="M1128.93,362.115C1133.98,362.115 1149.31,356.75 1153.61,358.394C1161.35,361.359 1172.82,368.671 1172.74,377.097C1172.71,381.141 1162.48,389.707 1162.48,389.707L1105.09,426.124C1105.09,426.124 1093.66,415.556 1093.66,400.327C1093.66,385.099 1110.42,362.115 1128.93,362.115Z" style="fill:rgb(168,107,106);"/>
            </g>
        </g>
        <g transform="matrix(0.389177,0.417709,-0.3521,0.32805,965.571,-206.239)">
            <path d="M1335.45,457.832C1333.73,453.143 1326.02,438.771 1320.05,432.07C1314.5,425.844 1303.41,418.85 1299.53,417.099C1298.21,416.504 1297.23,417.659 1298.33,418.635C1299.43,419.614 1308.37,427.781 1306.05,427.41C1303.73,427.039 1291.1,418.605 1287.54,417.587C1284.47,416.71 1283.64,419.227 1286.4,420.235C1290.33,421.663 1300.41,428.256 1306.47,434.134C1314.24,441.675 1323.95,455.787 1327.36,463.85C1328.84,467.338 1331.15,464.104 1330.42,462.254C1329.52,459.994 1327.07,453.637 1324.05,448.762C1321.83,445.168 1319.54,441.647 1317.63,439.483C1316.82,438.571 1315.46,437.188 1315.09,436.281C1314.7,435.337 1314.88,434.487 1315.92,435.214C1316.46,435.591 1317.31,436.651 1318.25,437.791C1323.65,444.302 1331.95,455.847 1333.13,458.799C1334.59,462.433 1336.74,461.338 1335.45,457.832Z" style="fill:rgb(168,107,106);stroke:black;stroke-opacity:0;stroke-width:1.17px;"/>
        </g>
        <g transform="matrix(0.389177,0.417709,-0.3521,0.32805,965.571,-206.239)">
            <path d="M1335.45,457.832C1333.73,453.143 1326.02,438.771 1320.05,432.07C1314.5,425.844 1303.41,418.85 1299.53,417.099C1298.21,416.504 1297.23,417.659 1298.33,418.635C1299.43,419.614 1308.37,427.781 1306.05,427.41C1303.73,427.039 1291.1,418.605 1287.54,417.587C1284.47,416.71 1283.64,419.227 1286.4,420.235C1290.33,421.663 1300.41,428.256 1306.47,434.134C1314.24,441.675 1323.95,455.787 1327.36,463.85C1328.84,467.338 1331.15,464.104 1330.42,462.254C1329.52,459.994 1327.07,453.637 1324.05,448.762C1321.83,445.168 1319.54,441.647 1317.63,439.483C1316.82,438.571 1315.46,437.188 1315.09,436.281C1314.7,435.337 1314.88,434.487 1315.92,435.214C1316.46,435.591 1317.31,436.651 1318.25,437.791C1323.65,444.302 1331.95,455.847 1333.13,458.799C1334.59,462.433 1336.74,461.338 1335.45,457.832Z" style="fill:rgb(137,78,77);stroke:black;stroke-opacity:0;stroke-width:1.17px;"/>
        </g>
    </g>
    <g transform="matrix(1,0,0,1,9.50872,-15.9919)">
        <g transform="matrix(0.650583,0,0,1.19645,614.921,-212.991)">
            <path d="M1128.93,362.115C1147.45,362.115 1162.83,374.479 1162.83,389.707C1162.83,404.935 1143.75,419.429 1125.23,419.429C1106.72,419.429 1095.39,404.935 1095.39,389.707C1095.39,374.479 1110.42,362.115 1128.93,362.115Z" style="fill:rgb(102,39,38);fill-opacity:0.262745;"/>
        </g>
        <g transform="matrix(0.264868,-0.0512489,0.0521482,0.269516,1163.01,229.902)">
            <ellipse cx="767.262" cy="249.793" rx="98.403" ry="91.374" style="fill:rgb(189,64,0);stroke:black;stroke-width:1.66px;"/>
            <g transform="matrix(0.857142,0,0,0.87574,109.609,31.58)">
                <ellipse cx="767.262" cy="249.793" rx="98.403" ry="91.374" style="stroke:black;stroke-opacity:0;stroke-width:1.92px;"/>
            </g>
            <g transform="matrix(0.752747,0,0,0.763314,190.249,60.204)">
                <ellipse cx="767.262" cy="249.793" rx="98.403" ry="91.374" style="fill:rgb(208,93,2);stroke:black;stroke-opacity:0;stroke-width:2.19px;"/>
            </g>
            <g transform="matrix(0.789267,0,0,0.914372,173.128,8.27747)">
                <path d="M789.43,210.324L796.835,229.377L820.797,229.377L801.411,241.153L808.816,260.206L789.43,248.431L770.044,260.206L777.449,241.153L758.063,229.377L782.025,229.377L789.43,210.324Z" style="fill:rgb(175,17,8);stroke:black;stroke-opacity:0;stroke-width:1.94px;"/>
            </g>
            <g transform="matrix(0.789267,0,0,0.914372,116.201,8.72495)">
                <path d="M789.43,210.324L796.835,229.377L820.797,229.377L801.411,241.153L808.816,260.206L789.43,248.431L770.044,260.206L777.449,241.153L758.063,229.377L782.025,229.377L789.43,210.324Z" style="fill:rgb(175,17,8);stroke:black;stroke-opacity:0;stroke-width:1.94px;"/>
            </g>
            <g transform="matrix(0.789267,0,0,0.914372,175.287,58.4454)">
                <path d="M789.43,210.324L796.835,229.377L820.797,229.377L801.411,241.153L808.816,260.206L789.43,248.431L770.044,260.206L777.449,241.153L758.063,229.377L782.025,229.377L789.43,210.324Z" style="fill:rgb(175,17,8);stroke:black;stroke-opacity:0;stroke-width:1.94px;"/>
            </g>
            <g transform="matrix(0.789267,0,0,0.914372,116.336,56.4714)">
                <path d="M789.43,210.324L796.835,229.377L820.797,229.377L801.411,241.153L808.816,260.206L789.43,248.431L770.044,260.206L777.449,241.153L758.063,229.377L782.025,229.377L789.43,210.324Z" style="fill:rgb(175,17,8);stroke:black;stroke-opacity:0;stroke-width:1.94px;"/>
            </g>
        </g>
        <g transform="matrix(0.26393,0,0,0.638716,1005.85,30.0717)">
            <path d="M1296.6,359.227C1296.29,363.726 1306.8,363.767 1306.83,359.227C1306.84,357.23 1307.22,350.049 1306.83,348.085C1305.1,339.412 1277.65,337.524 1276.31,348.085C1276.01,350.443 1276.37,357.254 1276.31,359.227C1276.11,365.144 1267.62,365.161 1267.04,359.227C1266.74,356.169 1267.43,344.986 1267.04,341.303C1265.9,330.556 1237.28,331.911 1236.98,341.303C1236.8,346.721 1236.98,362.231 1236.98,371.116C1236.98,374.395 1247.27,374.344 1247.27,371.116C1247.27,363.555 1247.27,350.031 1247.27,345.765C1247.28,339.024 1254.05,338.473 1255.5,345.765C1256.12,348.899 1255.38,359.473 1255.5,364.303C1255.66,371.409 1286.7,370.518 1287.3,364.303C1287.51,362.044 1287.33,353.998 1287.3,351.811C1287.16,343.856 1297.07,346.225 1296.6,351.811C1296.48,353.216 1296.7,357.789 1296.6,359.227Z" style="fill:rgb(137,78,77);stroke:black;stroke-opacity:0;stroke-width:0.93px;"/>
        </g>
        <g transform="matrix(0.236432,-0.205894,0.48703,0.559266,506.765,438.522)">
            <path d="M1296.6,359.227C1296.29,363.726 1306.8,363.767 1306.83,359.227C1306.84,357.23 1307.22,350.049 1306.83,348.085C1305.1,339.412 1277.65,337.524 1276.31,348.085C1276.01,350.443 1276.37,357.254 1276.31,359.227C1276.11,365.144 1267.62,365.161 1267.04,359.227C1266.74,356.169 1267.43,344.986 1267.04,341.303C1265.9,330.556 1237.28,331.911 1236.98,341.303C1236.8,346.721 1236.98,362.231 1236.98,371.116C1236.98,374.395 1247.27,374.344 1247.27,371.116C1247.27,363.555 1247.27,350.031 1247.27,345.765C1247.28,339.024 1254.05,338.473 1255.5,345.765C1256.12,348.899 1255.38,359.473 1255.5,364.303C1255.66,371.409 1286.7,370.518 1287.3,364.303C1287.51,362.044 1287.33,353.998 1287.3,351.811C1287.16,343.856 1297.07,346.225 1296.6,351.811C1296.48,353.216 1296.7,357.789 1296.6,359.227Z" style="fill:rgb(137,78,77);stroke:black;stroke-opacity:0;stroke-width:0.79px;"/>
        </g>
    </g>
    <g>
        <g transform="matrix(-0.629926,0,0,0.851575,1139.72,75.2425)">
            <path d="M1128.93,362.115C1142.24,362.115 1165.36,368.159 1178.78,375.445C1195.98,384.792 1183.13,392.291 1178.78,395.112C1142.19,418.804 1146.93,415.075 1128.93,422.656C1112.88,429.42 1095.39,404.935 1095.39,389.707C1095.39,374.479 1110.42,362.115 1128.93,362.115Z" style="fill:rgb(102,39,38);fill-opacity:0.262745;"/>
        </g>
        <g transform="matrix(1,0,0,1,-3.30463,3.0686)">
            <g transform="matrix(0.292797,0.216004,-0.124494,0.168754,117.938,90.6996)">
                <path d="M1210.82,392.546C1237.21,405.658 1237.13,379.502 1212.76,366.652C1212.16,366.337 1200.73,359.224 1194.89,359.224C1189.06,359.224 1179.99,363.67 1175.81,366.613C1145.02,388.279 1152.89,406.627 1175.81,392.546C1179.44,390.317 1190.08,386.351 1195.91,386.351C1201.75,386.351 1207.56,390.929 1210.82,392.546Z" style="fill:rgb(137,78,77);stroke:black;stroke-opacity:0;stroke-width:2.08px;"/>
            </g>
            <g transform="matrix(0.225755,0.166545,-0.100601,0.136367,197.348,153.742)">
                <path d="M1210.82,392.546C1237.21,405.658 1237.13,379.502 1212.76,366.652C1212.16,366.337 1200.73,359.224 1194.89,359.224C1189.06,359.224 1179.99,363.67 1175.81,366.613C1145.02,388.279 1152.89,406.627 1175.81,392.546C1179.44,390.317 1190.08,386.351 1195.91,386.351C1201.75,386.351 1207.56,390.929 1210.82,392.546Z" style="fill:rgb(137,78,77);stroke:black;stroke-opacity:0;stroke-width:2.66px;"/>
            </g>
            <g transform="matrix(0.365251,0.269455,-0.164427,0.222883,37.6362,15.8952)">
                <path d="M1210.82,392.546C1237.21,405.658 1237.13,379.502 1212.76,366.652C1212.16,366.337 1200.73,359.224 1194.89,359.224C1189.06,359.224 1179.99,363.67 1175.81,366.613C1145.02,388.279 1152.89,406.627 1175.81,392.546C1179.44,390.317 1189.78,386.046 1195.61,386.046C1201.44,386.046 1207.56,390.929 1210.82,392.546Z" style="fill:rgb(137,78,77);stroke:black;stroke-opacity:0;stroke-width:1.64px;"/>
            </g>
        </g>
        <g transform="matrix(0.364544,0.123732,0.123732,-0.364544,10.8433,522.792)">
            <g transform="matrix(0.949276,-0.314446,0.314446,0.949276,148.813,280.426)">
                <rect x="571.393" y="353.137" width="87.514" height="127.372" style="fill:rgb(255,248,102);stroke:black;stroke-width:2.35px;"/>
            </g>
            <g transform="matrix(0.246648,-0.0817016,0.308122,0.930186,613.25,135.41)">
                <rect x="571.393" y="353.137" width="87.514" height="127.372" style="fill:rgb(230,223,94);"/>
            </g>
            <g transform="matrix(-1.96661,-4.92026,1.03377,-0.413193,2069.16,5020.85)">
                <path d="M876.456,494.859C875.914,494.859 875.474,498.382 875.474,502.721C875.474,507.059 875.914,510.582 876.456,510.582C876.294,508.748 876.161,505.856 876.161,502.721C876.161,499.585 876.294,496.694 876.456,494.859Z" style="fill:white;stroke:black;stroke-width:0.61px;"/>
            </g>
            <g transform="matrix(0.973022,-0.313454,0.308834,0.95868,-101.238,292.355)">
                <path d="M883.405,411.134L836.527,411.596L837.359,424.826L841.522,429.732L846.224,447.273L853.817,450.892L864.02,450.874L869.02,455.79L875.43,464.306L880.329,465.884L884.069,465.05L883.405,411.134Z" style="fill:rgb(67,37,28);stroke:black;stroke-opacity:0;stroke-width:2.32px;"/>
            </g>
            <g transform="matrix(0.553749,-0.178387,0.312805,0.971006,267.797,167.879)">
                <path d="M883.405,411.134L840.703,411.026L843.179,450.638L854.765,452.637L866.192,462.977L880.329,465.884L884.069,465.05L883.405,411.134Z" style="fill:rgb(53,27,18);"/>
            </g>
            <path d="M888.17,419.787L844.468,433.456" style="fill:rgb(255,0,0);stroke:black;stroke-width:2.35px;"/>
            <g transform="matrix(-0.0267016,-0.999643,0.999643,-0.0267016,476.387,1310.41)">
                <path d="M886.559,420.29L839.068,434.787" style="fill:rgb(255,0,0);stroke:black;stroke-width:2.35px;"/>
            </g>
            <g transform="matrix(-0.0267016,-0.999643,0.999643,-0.0267016,461.123,1314.41)">
                <path d="M886.009,420.457L847.234,432.549" style="fill:rgb(255,0,0);stroke:black;stroke-width:2.35px;"/>
            </g>
            <g transform="matrix(-0.0267016,-0.999643,0.999643,-0.0267016,446.222,1317.31)">
                <path d="M884.168,421.317L865.559,427.039" style="fill:rgb(255,0,0);stroke:black;stroke-width:2.35px;"/>
            </g>
            <g transform="matrix(1,0,0,1,4.99709,12.6745)">
                <path d="M887.498,419.966L849.009,431.968" style="fill:rgb(255,0,0);stroke:black;stroke-width:2.35px;"/>
            </g>
            <g transform="matrix(0.98674,5.55112e-17,5.55112e-17,0.983903,21.6065,31.9582)">
                <path d="M887.498,419.966L850.646,431.223" style="fill:rgb(255,0,0);stroke:black;stroke-width:2.38px;"/>
            </g>
            <g transform="matrix(1,0,0,1,14.606,37.4092)">
                <path d="M886.55,420.357L875.345,424.008" style="fill:rgb(255,0,0);stroke:black;stroke-width:2.35px;"/>
            </g>
            <g transform="matrix(1,0,0,1,2.03517,7.26851)">
                <path d="M837.835,417.565C838.289,418.555 840.91,426.379 843.581,429.764C847.237,434.397 851.169,434.893 851.446,436.451C852.468,442.2 855.852,448.963 861.037,449.702C867.022,450.555 872.104,447.521 876.504,447.521C879.816,447.521 888.432,454.518 889.362,455.332C890.292,456.146 894.791,458.526 900.054,455.332" style="fill:none;stroke:black;stroke-width:2.35px;"/>
            </g>
            <g transform="matrix(1.44479,0,0,1.36621,-381.635,-167.903)">
                <ellipse cx="860.725" cy="483.269" rx="14.363" ry="14.537" style="fill:rgb(255,0,0);fill-opacity:0;stroke:black;stroke-width:1.67px;"/>
            </g>
            <g transform="matrix(1.23268,-0.527958,0.609354,1.42272,-499.365,248.566)">
                <ellipse cx="867.287" cy="487.21" rx="2.158" ry="4.884" style="stroke:black;stroke-width:1.62px;"/>
            </g>
            <g transform="matrix(1.23268,-0.527958,0.609354,1.42272,-514.483,254.032)">
                <ellipse cx="867.287" cy="487.21" rx="2.158" ry="4.884" style="stroke:black;stroke-width:1.62px;"/>
            </g>
        </g>
    </g>
    <g transform="matrix(-0.629926,0,0,0.851575,1710.98,24.8663)">
        <path d="M1126.66,354.938C1126.66,354.938 1130.98,345.923 1144.94,351.447C1158.25,356.715 1173.63,368.166 1178.33,373.063C1217.01,413.305 1208.71,432.528 1155.48,428.142C1149.88,427.68 1137.42,425.358 1123.85,420.38C1105.83,413.766 1085.85,404.197 1077.46,396.723C1071.45,391.371 1090.57,384.698 1090.57,384.698L1106.73,394.526L1141.33,365.173L1126.66,354.938Z" style="fill:rgb(102,39,38);fill-opacity:0.262745;"/>
    </g>
    <g transform="matrix(0.106208,0.123483,-0.124233,0.106853,896.211,-30.033)">
        <g transform="matrix(2.44637,-2.10434e-17,1.8863e-17,2.71844,812.788,-45.538)">
            <rect x="518.356" y="307.12" width="86.507" height="82.182" style="fill:white;fill-opacity:0.721569;stroke:black;stroke-width:1.95px;"/>
        </g>
        <g transform="matrix(0.512553,8.6244e-17,-5.36959e-16,2.71844,1981.83,-45.7976)">
            <rect x="518.356" y="307.12" width="86.507" height="82.182" style="fill-opacity:0.0901961;"/>
        </g>
        <g transform="matrix(1.84411,0.0424695,-0.0424695,1.84411,333.551,-339.389)">
            <g>
                <g transform="matrix(1,0,0,0.923156,0,42.8355)">
                    <rect x="983.192" y="557.432" width="15.874" height="34.583" style="fill:rgb(213,131,46);stroke:black;stroke-width:1.7px;"/>
                </g>
                <g transform="matrix(0.200122,-2.15731e-17,6.08282e-17,0.876171,798.318,69.8367)">
                    <rect x="983.192" y="557.432" width="15.874" height="34.583" style="fill:rgb(185,115,43);"/>
                </g>
                <g transform="matrix(0.903226,0,0,1,95.6594,0)">
                    <path d="M991.413,540.424L1000.2,556.298L982.626,556.298L991.413,540.424Z" style="fill:rgb(175,86,67);stroke:black;stroke-width:1.72px;"/>
                </g>
                <g transform="matrix(-0.431425,0.106625,0.192583,0.771591,1314.37,21.1832)">
                    <path d="M988.352,542.055L992.439,555.301L982.356,556.785L988.352,542.055Z" style="fill:rgb(163,72,53);"/>
                </g>
                <g transform="matrix(1.075,0,0,0.938053,-81.85,34.0867)">
                    <rect x="1011.97" y="551.4" width="14.174" height="40.04" style="stroke:black;stroke-width:1.62px;"/>
                </g>
                <g transform="matrix(1.08,0,0,0.78125,-87.0231,116.903)">
                    <rect x="1015.15" y="530.848" width="7.087" height="22.678" style="fill:rgb(142,142,142);stroke:black;stroke-width:1.74px;"/>
                </g>
                <g transform="matrix(0.35112,-5.92167e-17,5.2819e-16,0.70925,657.253,155.946)">
                    <rect x="1015.15" y="530.848" width="7.087" height="22.678" style="fill:rgb(112,112,112);"/>
                </g>
                <g transform="matrix(0.808258,0,0,0.864247,188.32,74.3211)">
                    <rect x="1030.77" y="554.076" width="7.087" height="62.009" style="fill:rgb(142,142,142);stroke:black;stroke-width:1.96px;"/>
                </g>
                <g transform="matrix(0.272472,-1.4292e-17,1.31099e-16,0.838073,743.563,89.6298)">
                    <rect x="1030.77" y="554.076" width="7.087" height="62.009" style="fill:rgb(112,112,112);"/>
                </g>
                <g transform="matrix(0.724165,0.283994,-0.182295,0.464841,429.133,-7.03645)">
                    <rect x="1030.77" y="554.076" width="7.087" height="62.009" style="fill:rgb(80,70,70);stroke:black;stroke-width:2.5px;"/>
                </g>
                <g transform="matrix(0.164393,0.0644694,-0.172662,0.440276,1003.69,234.855)">
                    <rect x="1030.77" y="554.076" width="7.087" height="62.009" style="fill:rgb(68,60,60);"/>
                </g>
                <g transform="matrix(0.934033,0.357188,-0.446684,1.16806,333.567,-475.525)">
                    <path d="M1052.75,557.805L1042.55,557.805L1041.73,591.79L1052.75,588.419L1052.75,557.805Z" style="fill:rgb(140,158,69);stroke:black;stroke-width:1.44px;"/>
                </g>
                <g transform="matrix(0.513887,0.207584,-0.468612,1.15955,792.846,-315.544)">
                    <path d="M1045.57,558.219L1041.21,557.621L1041.73,591.79L1046.26,591.023L1045.57,558.219Z" style="fill:rgb(123,142,51);"/>
                </g>
                <g transform="matrix(0.614685,0.252621,-0.252715,0.614915,539.037,-58.0605)">
                    <path d="M1087.54,563.687C1088.52,559.528 1089.34,539.403 1087.51,534.962C1085.61,530.328 1084.02,522.654 1077.84,522.654C1071.66,522.654 1066.64,534.912 1066.64,550.009C1066.64,554.811 1067.16,559.528 1068.14,563.687L1087.54,563.687Z" style="fill:rgb(80,70,70);stroke:black;stroke-width:2.46px;"/>
                </g>
                <g transform="matrix(-0.307078,-0.12646,-0.241731,0.572394,1529.12,374.773)">
                    <path d="M1087.54,563.687C1088.5,559.631 1088.01,522.137 1082.03,522.978C1079.58,523.322 1074.29,526.66 1071.19,531.697C1068.35,536.299 1065.94,543.313 1065.94,550.521C1065.94,555.322 1067.16,559.528 1068.14,563.687L1087.54,563.687Z" style="fill:rgb(68,60,60);"/>
                </g>
            </g>
        </g>
    </g>
</svg>
